<svg xmlns="http://www.w3.org/2000/svg" width="18" height="16" fill="none" viewBox="0 0 18 16">
  <path fill="#293A45" d="M.025 15.535v-1.347a2.42 2.42 0 0 0 1.077-.359c.3-.194.599-.4.898-.617a5.533 5.533 0 0 1 1.01-.572c.373-.164.837-.247 1.39-.247.554 0 1.025.094 1.414.281.389.187.744.393 1.066.617.321.224.647.43.976.617.329.187.71.28 1.144.28.434 0 .815-.093 1.144-.28.33-.187.655-.393.976-.617.322-.224.677-.43 1.066-.617s.86-.28 1.414-.28c.553 0 1.013.082 1.38.246a6 6 0 0 1 1.01.572c.306.217.609.423.908.617.299.195.658.315 1.077.36v1.346c-.524-.03-.961-.139-1.313-.326a9.124 9.124 0 0 1-.987-.605 11.447 11.447 0 0 0-.931-.595c-.314-.18-.696-.27-1.144-.27-.45 0-.842.094-1.178.281-.337.187-.666.393-.988.617-.321.225-.673.43-1.054.617s-.841.28-1.38.28c-.538 0-.998-.093-1.38-.28a7.97 7.97 0 0 1-1.054-.617c-.322-.224-.65-.43-.987-.617-.337-.187-.73-.28-1.178-.28-.45 0-.834.09-1.156.269a9.34 9.34 0 0 0-.931.595 8.29 8.29 0 0 1-.976.605c-.352.187-.79.296-1.313.326Zm0-3.95V10.24a2.42 2.42 0 0 0 1.077-.36c.3-.194.599-.4.898-.616a5.477 5.477 0 0 1 1.01-.573c.373-.164.837-.246 1.39-.246.554 0 1.025.093 1.414.28a7.66 7.66 0 0 1 1.066.617c.321.224.647.43.976.617.329.187.71.28 1.144.28.434 0 .815-.093 1.144-.28.33-.187.655-.393.976-.617.322-.224.677-.43 1.066-.617s.86-.28 1.414-.28c.553 0 1.013.082 1.38.246.366.165.702.356 1.01.573.306.216.609.422.908.617.299.194.658.314 1.077.359v1.346c-.524-.06-.961-.187-1.313-.382a12.36 12.36 0 0 1-.987-.605 9.332 9.332 0 0 0-.931-.561c-.314-.165-.696-.247-1.144-.247-.45 0-.838.093-1.167.28-.33.187-.658.393-.987.617-.33.225-.685.43-1.066.617s-.841.28-1.38.28c-.538 0-.998-.093-1.38-.28a7.959 7.959 0 0 1-1.054-.617c-.322-.224-.65-.43-.987-.617-.337-.187-.73-.28-1.178-.28-.45 0-.834.09-1.156.27a9.163 9.163 0 0 0-.931.594c-.3.216-.625.418-.976.606-.352.186-.79.295-1.313.325Zm0-3.948V6.29c.42-.03.778-.139 1.077-.326.3-.187.599-.389.898-.605a6.477 6.477 0 0 1 1.01-.595c.373-.18.837-.27 1.39-.27.554 0 1.025.094 1.414.281.389.187.744.393 1.066.617.321.225.647.43.976.617.329.187.71.28 1.144.28.434 0 .815-.093 1.144-.28.33-.187.655-.392.976-.617.322-.224.677-.43 1.066-.617s.86-.28 1.414-.28c.553 0 1.013.09 1.38.269.366.18.702.378 1.01.595.306.216.609.418.908.605.299.187.658.296 1.077.326v1.346c-.524-.03-.961-.138-1.313-.325a9.136 9.136 0 0 1-.987-.606 11.451 11.451 0 0 0-.931-.595c-.314-.18-.696-.269-1.144-.269-.45 0-.842.093-1.178.28-.337.187-.666.393-.988.617-.321.225-.673.43-1.054.617s-.841.28-1.38.28c-.538 0-.998-.093-1.38-.28a7.97 7.97 0 0 1-1.054-.617c-.322-.224-.65-.43-.987-.617-.337-.187-.73-.28-1.178-.28-.45 0-.834.09-1.156.27a9.163 9.163 0 0 0-.931.594 8.3 8.3 0 0 1-.976.606c-.352.187-.79.295-1.313.325Zm0-3.949V2.342a2.42 2.42 0 0 0 1.077-.36c.3-.194.599-.4.898-.616A5.418 5.418 0 0 1 3.01.794C3.383.629 3.847.547 4.4.547c.554 0 1.025.093 1.414.28.389.187.744.393 1.066.617.321.225.647.43.976.617.329.187.71.28 1.144.28.434 0 .815-.093 1.144-.28.33-.187.655-.392.976-.617.322-.224.677-.43 1.066-.617s.86-.28 1.414-.28c.553 0 1.013.082 1.38.247.366.164.702.355 1.01.572.306.217.609.422.908.617.299.194.658.314 1.077.359v1.346c-.524-.03-.961-.138-1.313-.325a9.136 9.136 0 0 1-.987-.606 11.448 11.448 0 0 0-.931-.595c-.314-.18-.696-.269-1.144-.269-.45 0-.842.094-1.178.28a11.52 11.52 0 0 0-.988.618c-.321.224-.673.43-1.054.617s-.841.28-1.38.28c-.538 0-.998-.093-1.38-.28a7.972 7.972 0 0 1-1.054-.617 11.25 11.25 0 0 0-.987-.617c-.337-.187-.73-.28-1.178-.28-.45 0-.834.089-1.156.268a9.34 9.34 0 0 0-.931.595 8.3 8.3 0 0 1-.976.606c-.352.187-.79.295-1.313.325Z"/>
</svg>
