<?xml version="1.0" encoding="UTF-8" standalone="no"?>
<svg
        xmlns:dc="http://purl.org/dc/elements/1.1/"
        xmlns:cc="http://creativecommons.org/ns#"
        xmlns:rdf="http://www.w3.org/1999/02/22-rdf-syntax-ns#"
        xmlns:sodipodi="http://sodipodi.sourceforge.net/DTD/sodipodi-0.dtd"
        xmlns:inkscape="http://www.inkscape.org/namespaces/inkscape"
        xmlns="http://www.w3.org/2000/svg"
        version="1.1"
        x="0px"
        y="0px"
        viewBox="0 0 200 200.00001"
        xml:space="preserve"
        id="svg88"
        sodipodi:docname="icon-coclico.svg"
        inkscape:version="1.0.1 (3bc2e813f5, 2020-09-07)"
        width="200"
        height="200"><metadata
   id="metadata94"><rdf:RDF><cc:Work
       rdf:about=""><dc:format>image/svg+xml</dc:format><dc:type
        rdf:resource="http://purl.org/dc/dcmitype/StillImage"/><dc:title></dc:title></cc:Work></rdf:RDF></metadata>
    <defs
            id="defs92">
	
	
	
	
	
	
	
	
</defs>
    <sodipodi:namedview
            pagecolor="#ffffff"
            bordercolor="#666666"
            borderopacity="1"
            objecttolerance="10"
            gridtolerance="10"
            guidetolerance="10"
            inkscape:pageopacity="0"
            inkscape:pageshadow="2"
            inkscape:window-width="1920"
            inkscape:window-height="1017"
            id="namedview90"
            showgrid="false"
            inkscape:zoom="1.306"
            inkscape:cx="500"
            inkscape:cy="136.64999"
            inkscape:window-x="-8"
            inkscape:window-y="-8"
            inkscape:window-maximized="1"
            inkscape:current-layer="svg88"/>
    <style
            type="text/css"
            id="style2">
	.st0{fill:#323E48;}
	.st1{fill:#008996;}
	.st2{fill:#95BAC3;}
	.st3{fill:#B8E5F0;}
	.st4{fill:#DFA36C;}
	.st5{fill:#C8D9DE;}
	.st6{fill:#F6E2D0;}
</style>
    <g
            id="Ebene_1">
</g>
    <path
            class="st2"
            d="m 149.36488,139.49913 c -15.12843,4.86564 -28.91482,5.45901 -40.99317,3.91625 13.66439,4.39093 30.01286,7.00176 48.80139,5.22165 10.85831,-1.06806 20.9846,-3.56022 30.13486,-6.64574 2.44007,-4.62829 4.39212,-9.6126 5.97817,-14.71558 2.19606,-7.12044 3.5381,-14.24088 4.02611,-21.24264 -9.39427,13.05413 -24.27869,25.9896 -47.94736,33.46606 z"
            id="path75"
            style="stroke-width:1.20327"/>
    <path
            class="st3"
            d="m 33.583589,91.79219 c 9.15026,6.171048 17.446496,13.52883 25.864735,21.47999 v 0 c 13.542385,12.10475 32.208913,19.58121 48.557376,19.58121 36.11303,0 65.39386,-28.60043 65.39386,-63.609261 0,-27.888391 -18.78853,-52.453909 -45.8733,-60.6424154 C 76.284803,-5.9951889 22.35927,22.249224 6.7428259,72.092305 c -0.36601,1.18674 -0.732021,2.37348 -0.976028,3.56022 9.1502601,4.390938 18.1785171,9.612595 27.8167911,16.139665 z"
            id="path77"
            style="stroke-width:1.20327"/>
    <path
            class="st4"
            d="m 140.82464,185.78199 c 4.75813,-2.13613 9.27226,-4.62828 13.66438,-7.47646 -10.8583,-0.83072 -22.57064,-3.44154 -34.03896,-9.25657 -24.522703,-12.3421 -42.335205,-29.31248 -58.073653,-44.38408 -3.17209,-2.7295 -5.246149,-4.98431 -6.466184,-6.17105 C 47.369981,110.42401 38.951741,102.82887 29.923485,96.657824 20.895228,90.60545 12.598992,85.739816 4.1807529,81.467551 c -2.440069,11.867401 -2.318066,23.853469 -0.122003,35.246169 14.5184121,1.54277 32.9409361,6.52708 51.6074671,19.22519 35.74702,24.44685 69.907983,42.24795 85.158423,49.84308 z"
            id="path79"
            style="stroke-width:1.20327"/>
    <path
            class="st5"
            d="m 145.09476,155.28278 c -20.49659,0 -37.69907,-4.74696 -51.485463,-10.79934 8.784243,7.00177 18.422523,13.52884 29.768843,19.22519 13.17637,6.64574 27.08477,8.78188 39.16311,8.78188 7.93023,-6.4084 14.76242,-14.00354 20.37458,-22.66674 -7.80822,2.25481 -16.22646,4.03492 -25.01071,4.86564 -4.39212,0.35602 -8.66224,0.59337 -12.81036,0.59337 z"
            id="path81"
            style="stroke-width:1.20327"/>
    <path
            class="st1"
            d="m 179.62174,69.244129 c 0,34.890151 -26.47475,63.846611 -60.87973,68.949591 8.78425,0.11867 18.42252,-1.06807 28.79282,-4.39094 27.08477,-8.6632 41.96919,-24.68419 50.14342,-39.399762 -1.34204,-23.734801 -11.95634,-46.045513 -29.15883,-62.5412 6.9542,10.918008 11.10232,23.734801 11.10232,37.382311 z"
            id="path83"
            style="stroke-width:1.20327"/>
    <path
            class="st6"
            d="M 52.128116,141.0419 C 35.535644,129.64919 18.821169,124.90223 5.5227909,123.2408 c 8.1742331,30.97391 32.3309191,57.20086 66.1258801,67.16948 20.984596,6.17105 42.457209,5.22166 61.611749,-1.54276 -17.08048,-8.6632 -48.435373,-25.51491 -81.132304,-47.82562 z"
            id="path85"
            style="stroke-width:1.20327"/>
</svg>
