<svg xmlns="http://www.w3.org/2000/svg" width="96" height="27" fill="none" viewBox="0 0 96 27">
    <path fill="#323E48"
          d="M4.258 14.917a7.83 7.83 0 0 1-2.763-2.843 7.636 7.636 0 0 1-1.01-3.858A7.636 7.636 0 0 1 1.487 4.37a7.77 7.77 0 0 1 2.744-2.832A7.168 7.168 0 0 1 8.026.485a7.243 7.243 0 0 1 4.774 1.72.464.464 0 0 1 .174.388c0 .152-.055.3-.155.414a.528.528 0 0 1-.425.185.795.795 0 0 1-.482-.231c-.981-.878-2.276-1.317-3.886-1.317a5.935 5.935 0 0 0-3.182.91 6.705 6.705 0 0 0-2.343 2.427 6.398 6.398 0 0 0-.87 3.235 6.545 6.545 0 0 0 .862 3.296 6.456 6.456 0 0 0 2.351 2.407 6.067 6.067 0 0 0 3.196.89 6.117 6.117 0 0 0 4-1.41.487.487 0 0 1 .291-.098.596.596 0 0 1 .543.366c.029.072.043.15.04.228a.595.595 0 0 1-.133.406c-1.108 1.109-2.693 1.663-4.755 1.663a7.162 7.162 0 0 1-3.768-1.047Zm12.809.27a5.098 5.098 0 0 1-1.943-1.943 5.426 5.426 0 0 1-.706-2.745 5.476 5.476 0 0 1 .706-2.765 5.118 5.118 0 0 1 1.943-1.943 5.741 5.741 0 0 1 5.506 0 5.129 5.129 0 0 1 1.94 1.943c.475.843.719 1.797.706 2.765a5.427 5.427 0 0 1-.706 2.745 5.109 5.109 0 0 1-1.94 1.943 5.72 5.72 0 0 1-5.506 0Zm4.926-.937a4.034 4.034 0 0 0 1.518-1.546 4.476 4.476 0 0 0 .544-2.205 4.457 4.457 0 0 0-.544-2.203 4.088 4.088 0 0 0-1.518-1.557 4.24 4.24 0 0 0-5.855 1.557 4.364 4.364 0 0 0-.559 2.203c-.01.771.182 1.532.559 2.205.36.643.887 1.178 1.525 1.546a4.472 4.472 0 0 0 4.33 0Zm8.841.667a7.789 7.789 0 0 1-2.762-2.843 7.62 7.62 0 0 1-1.025-3.858 7.636 7.636 0 0 1 1.014-3.846 7.77 7.77 0 0 1 2.743-2.832 7.435 7.435 0 0 1 8.57.667.458.458 0 0 1 .174.388c0 .152-.055.3-.156.414a.529.529 0 0 1-.425.185.795.795 0 0 1-.482-.231c-.979-.878-2.273-1.317-3.883-1.317a5.945 5.945 0 0 0-3.18.91 6.704 6.704 0 0 0-2.348 2.427 6.435 6.435 0 0 0-.869 3.235 6.545 6.545 0 0 0 .861 3.296 6.455 6.455 0 0 0 2.338 2.407 6.297 6.297 0 0 0 7.195-.52.488.488 0 0 1 .292-.098.59.59 0 0 1 .414.174.567.567 0 0 1 .185.425.595.595 0 0 1-.136.406c-1.108 1.109-2.692 1.663-4.752 1.663a7.15 7.15 0 0 1-3.768-1.052Zm11.398-.03a3.588 3.588 0 0 1-.706-2.3V1.256a.546.546 0 0 1 .163-.425.59.59 0 0 1 .417-.153.583.583 0 0 1 .425.153.574.574 0 0 1 .153.425v11.33a2.6 2.6 0 0 0 .379 1.458 1.128 1.128 0 0 0 .975.572h.482a.447.447 0 0 1 .35.153c.094.12.142.272.133.425a.592.592 0 0 1-.153.417.544.544 0 0 1-.425.164h-.387a2.203 2.203 0 0 1-1.806-.889ZM46.91 2.718a.904.904 0 0 1-.25-.649.817.817 0 0 1 .272-.657.953.953 0 0 1 .637-.232.912.912 0 0 1 .63.232.83.83 0 0 1 .272.657.895.895 0 0 1-.923.922.85.85 0 0 1-.638-.273Zm.243 12.894a.564.564 0 0 1-.164-.417V5.782a.546.546 0 0 1 .578-.58.566.566 0 0 1 .425.155.575.575 0 0 1 .155.425v9.413a.58.58 0 0 1-.155.417.545.545 0 0 1-.425.164.564.564 0 0 1-.414-.164Zm7.413-.695a7.789 7.789 0 0 1-2.763-2.843 7.62 7.62 0 0 1-1.024-3.858 7.636 7.636 0 0 1 1.013-3.846 7.77 7.77 0 0 1 2.744-2.832 7.435 7.435 0 0 1 8.569.667.459.459 0 0 1 .174.388c0 .152-.055.3-.155.414a.528.528 0 0 1-.425.185.795.795 0 0 1-.483-.231c-.977-.878-2.271-1.317-3.882-1.317a5.951 5.951 0 0 0-3.18.91 6.699 6.699 0 0 0-2.357 2.427 6.4 6.4 0 0 0-.871 3.235 6.584 6.584 0 0 0 .871 3.296 6.457 6.457 0 0 0 2.338 2.407 6.302 6.302 0 0 0 7.199-.52.48.48 0 0 1 .288-.098.591.591 0 0 1 .415.174.569.569 0 0 1 .185.425.594.594 0 0 1-.136.406c-1.108 1.109-2.692 1.663-4.752 1.663a7.15 7.15 0 0 1-3.768-1.052Zm12.805.27a5.119 5.119 0 0 1-1.942-1.943 5.454 5.454 0 0 1-.706-2.745 5.504 5.504 0 0 1 .706-2.765 5.138 5.138 0 0 1 1.942-1.943 5.741 5.741 0 0 1 5.507 0 5.157 5.157 0 0 1 1.942 1.943c.475.844.718 1.797.706 2.765a5.454 5.454 0 0 1-.706 2.745 5.137 5.137 0 0 1-1.942 1.943 5.72 5.72 0 0 1-5.507 0Zm4.927-.937a4.014 4.014 0 0 0 1.517-1.546c.37-.676.558-1.436.545-2.205a4.427 4.427 0 0 0-.545-2.203 4.088 4.088 0 0 0-1.517-1.557 4.24 4.24 0 0 0-5.853 1.557 4.364 4.364 0 0 0-.57 2.203 4.363 4.363 0 0 0 .562 2.205c.36.643.887 1.178 1.526 1.546a4.466 4.466 0 0 0 4.326 0h.008Z"/>
    <path fill="#008996"
          d="M1.368 26.328a1.562 1.562 0 0 1-.572-.588 1.694 1.694 0 0 1-.21-.835 1.767 1.767 0 0 1 .202-.845 1.47 1.47 0 0 1 1.338-.798 1.477 1.477 0 0 1 1.196.567c.03.034.046.077.046.122a.204.204 0 0 1-.1.167.212.212 0 0 1-.113.032.234.234 0 0 1-.171-.087 1.217 1.217 0 0 0-.387-.292 1.113 1.113 0 0 0-.471-.095 1.09 1.09 0 0 0-.578.155c-.166.108-.298.26-.382.44a1.43 1.43 0 0 0-.136.634c-.003.218.047.434.147.627.091.18.229.331.398.44.184.107.395.162.608.157a1.09 1.09 0 0 0 .768-.24.24.24 0 0 1 .16-.062.19.19 0 0 1 .129.046.206.206 0 0 1 .082.158.172.172 0 0 1-.058.131 1.517 1.517 0 0 1-1.07.393c-.29 0-.576-.078-.826-.227Zm3.661.003a1.55 1.55 0 0 1-.586-.586 1.792 1.792 0 0 1 0-1.682c.138-.246.34-.45.586-.588a1.67 1.67 0 0 1 .839-.213c.293-.005.581.069.836.212.248.14.452.343.592.59.145.256.22.547.215.842.002.294-.072.583-.215.84a1.55 1.55 0 0 1-.586.585 1.784 1.784 0 0 1-1.678 0h-.003Zm1.45-.36c.178-.104.324-.256.422-.438.103-.193.155-.409.152-.627.003-.22-.05-.438-.152-.633a1.109 1.109 0 0 0-.423-.439 1.261 1.261 0 0 0-1.223 0 1.123 1.123 0 0 0-.411.44c-.107.193-.161.41-.158.632-.003.219.052.435.158.627.1.182.247.334.427.439a1.261 1.261 0 0 0 1.224 0h-.017Zm4.435-2.494c.246.14.45.345.588.592.145.255.22.544.216.837v1.382a.217.217 0 0 1-.066.16.221.221 0 0 1-.163.066.231.231 0 0 1-.166-.063.22.22 0 0 1-.063-.163v-.352a1.494 1.494 0 0 1-1.226.605 1.536 1.536 0 0 1-1.376-.801 1.748 1.748 0 0 1 0-1.671c.14-.246.343-.45.588-.592a1.716 1.716 0 0 1 1.665 0h.003Zm-.226 2.494a1.16 1.16 0 0 0 .422-.438 1.344 1.344 0 0 0 0-1.254 1.189 1.189 0 0 0-.428-.442 1.14 1.14 0 0 0-.605-.16 1.16 1.16 0 0 0-1.038.602 1.323 1.323 0 0 0 0 1.254 1.19 1.19 0 0 0 1.046.597c.212.003.42-.052.603-.159Zm2.602.447a1.362 1.362 0 0 1-.544-.346.215.215 0 0 1-.06-.136.227.227 0 0 1 .095-.177.237.237 0 0 1 .147-.052.217.217 0 0 1 .169.082c.102.114.23.2.373.253.165.06.34.09.515.087.216.016.431-.034.619-.141a.453.453 0 0 0 .215-.371.41.41 0 0 0-.207-.352 1.6 1.6 0 0 0-.651-.212 1.825 1.825 0 0 1-.864-.328.702.702 0 0 1-.272-.561.768.768 0 0 1 .332-.665c.246-.165.538-.248.834-.237a1.6 1.6 0 0 1 .675.133c.185.08.345.207.466.368.028.04.044.088.047.136a.178.178 0 0 1-.093.159.193.193 0 0 1-.112.03.273.273 0 0 1-.207-.09.997.997 0 0 0-.787-.33.904.904 0 0 0-.518.133.39.39 0 0 0-.149.526.4.4 0 0 0 .135.145c.2.11.421.18.649.204.325.033.635.152.899.344a.753.753 0 0 1 .272.591.772.772 0 0 1-.163.483 1.033 1.033 0 0 1-.452.34 1.68 1.68 0 0 1-.654.118 2.024 2.024 0 0 1-.709-.134Zm4.657-.294a.24.24 0 0 1 .057.164.201.201 0 0 1-.07.16.248.248 0 0 1-.175.066h-.126a1.054 1.054 0 0 1-.929-.559 1.187 1.187 0 0 1-.144-.578v-1.573h-.392a.21.21 0 0 1-.15-.054.2.2 0 0 1-.055-.14.192.192 0 0 1 .205-.201h.392v-.91a.232.232 0 0 1 .06-.167.237.237 0 0 1 .327 0 .223.223 0 0 1 .065.166v.91h.665a.199.199 0 0 1 .15.058.192.192 0 0 1 .057.144.19.19 0 0 1-.057.14.208.208 0 0 1-.15.054h-.673v1.573a.701.701 0 0 0 .177.49.585.585 0 0 0 .452.191h.161a.2.2 0 0 1 .153.066Zm3.163-2.647c.246.14.45.345.588.592.145.255.219.544.215.837v1.382a.217.217 0 0 1-.065.16.221.221 0 0 1-.164.066.231.231 0 0 1-.166-.063.213.213 0 0 1-.063-.163v-.352a1.494 1.494 0 0 1-1.226.605 1.536 1.536 0 0 1-1.378-.801 1.693 1.693 0 0 1-.21-.834 1.65 1.65 0 0 1 .215-.837c.14-.246.343-.45.588-.592a1.716 1.716 0 0 1 1.665 0Zm-.227 2.494a1.18 1.18 0 0 0 .428-.438 1.344 1.344 0 0 0 0-1.254 1.21 1.21 0 0 0-.428-.442 1.14 1.14 0 0 0-.605-.16 1.168 1.168 0 0 0-1.04.602 1.345 1.345 0 0 0 0 1.254 1.166 1.166 0 0 0 1.04.597c.213.003.422-.052.605-.159Zm2.377.256a1.153 1.153 0 0 1-.227-.733v-3.356a.208.208 0 0 1 .066-.16.237.237 0 0 1 .321 0 .213.213 0 0 1 .06.16v3.356a.75.75 0 0 0 .104.412.303.303 0 0 0 .272.158h.147a.176.176 0 0 1 .142.063.24.24 0 0 1 .054.16.209.209 0 0 1-.073.164.295.295 0 0 1-.194.063h-.076a.713.713 0 0 1-.597-.287Zm4.394.101a1.548 1.548 0 0 1-.575-.589 1.694 1.694 0 0 1-.21-.834 1.769 1.769 0 0 1 .202-.845 1.54 1.54 0 0 1 2.542-.232c.03.034.046.078.046.123a.215.215 0 0 1-.212.2.228.228 0 0 1-.17-.088 1.26 1.26 0 0 0-.389-.292 1.102 1.102 0 0 0-.471-.095 1.09 1.09 0 0 0-.575.155c-.167.107-.3.26-.384.44a1.422 1.422 0 0 0-.14.634c-.003.218.048.434.148.627.095.181.237.333.411.44.184.107.395.162.608.157a1.11 1.11 0 0 0 .76-.253c.043-.04.1-.063.158-.063.047 0 .093.016.128.046a.2.2 0 0 1 .085.158.175.175 0 0 1-.06.131 1.517 1.517 0 0 1-1.071.393 1.602 1.602 0 0 1-.831-.213Zm3.246-.101a1.138 1.138 0 0 1-.226-.733v-3.356a.215.215 0 0 1 .223-.223.21.21 0 0 1 .21.136c.01.028.015.058.014.087v3.356a.725.725 0 0 0 .103.412.303.303 0 0 0 .273.158h.147a.181.181 0 0 1 .142.063.237.237 0 0 1 .051.16.2.2 0 0 1-.073.164.286.286 0 0 1-.19.063h-.077a.71.71 0 0 1-.597-.287Zm1.866-3.641a.323.323 0 0 1-.093-.23.297.297 0 0 1 .095-.228.319.319 0 0 1 .229-.09.31.31 0 0 1 .223.09.298.298 0 0 1 .096.229.328.328 0 0 1-.325.324.302.302 0 0 1-.225-.095Zm.068 3.862a.223.223 0 0 1-.066-.166v-2.761a.226.226 0 0 1 .14-.213.221.221 0 0 1 .089-.016.21.21 0 0 1 .163.065.23.23 0 0 1 .06.164v2.761a.232.232 0 0 1-.06.166.212.212 0 0 1-.163.066.221.221 0 0 1-.163-.066Zm5.752-3.012c.181.111.326.273.416.466.104.22.156.462.15.706v1.693a.208.208 0 0 1-.135.213.209.209 0 0 1-.088.013.232.232 0 0 1-.164-.062.214.214 0 0 1-.065-.164v-1.706a.967.967 0 0 0-.215-.666.714.714 0 0 0-.562-.242.774.774 0 0 0-.599.248.873.873 0 0 0-.223.646v1.706a.215.215 0 0 1-.227.227.232.232 0 0 1-.163-.063.213.213 0 0 1-.065-.164v-1.692a.968.968 0 0 0-.216-.666.713.713 0 0 0-.56-.242.798.798 0 0 0-.782.525.851.851 0 0 0-.055.333v1.742a.21.21 0 0 1-.224.227.232.232 0 0 1-.163-.063.214.214 0 0 1-.066-.164V23.52a.226.226 0 0 1 .14-.213.221.221 0 0 1 .09-.015.212.212 0 0 1 .163.065.23.23 0 0 1 .06.163v.131a1.161 1.161 0 0 1 .882-.395c.204-.003.406.047.583.147.172.098.315.24.412.412.112-.172.264-.314.444-.412.19-.1.401-.15.616-.147.218 0 .432.062.616.18Zm4.13.041c.245.141.448.346.588.592.143.255.216.544.213.837v1.382a.212.212 0 0 1-.063.16.223.223 0 0 1-.166.066.232.232 0 0 1-.164-.063.214.214 0 0 1-.065-.163v-.352a1.493 1.493 0 0 1-1.223.605 1.543 1.543 0 0 1-1.382-.801 1.692 1.692 0 0 1-.207-.834 1.65 1.65 0 0 1 .215-.837c.139-.247.341-.451.586-.592a1.72 1.72 0 0 1 1.668 0Zm-.226 2.494c.178-.105.325-.256.425-.438a1.345 1.345 0 0 0 0-1.254 1.18 1.18 0 0 0-.425-.442 1.228 1.228 0 0 0-1.216 0c-.18.106-.328.259-.43.442a1.344 1.344 0 0 0 0 1.254c.1.182.25.334.43.438a1.248 1.248 0 0 0 1.216 0Zm3.68.153a.243.243 0 0 1 .042.252.21.21 0 0 1-.053.072.253.253 0 0 1-.177.066h-.125a1.054 1.054 0 0 1-.943-.559 1.186 1.186 0 0 1-.139-.578v-1.573h-.381a.208.208 0 0 1-.15-.054.187.187 0 0 1-.057-.14.196.196 0 0 1 .207-.201h.381v-.91a.233.233 0 0 1 .063-.167.21.21 0 0 1 .16-.065.224.224 0 0 1 .17.079.23.23 0 0 1 .062.166v.897h.665a.209.209 0 0 1 .153.057.202.202 0 0 1 .054.145.2.2 0 0 1-.054.139.218.218 0 0 1-.153.054h-.665v1.573a.7.7 0 0 0 .177.49.584.584 0 0 0 .453.192h.16a.193.193 0 0 1 .15.065Zm3.013-2.658c.223.134.403.33.52.562.128.253.191.534.185.818a.195.195 0 0 1-.127.194.207.207 0 0 1-.083.013H47.3a1.157 1.157 0 0 0 1.202 1.09c.144 0 .288-.025.424-.073a1.04 1.04 0 0 0 .347-.186.256.256 0 0 1 .158-.057c.047 0 .093.016.13.046a.218.218 0 0 1 .077.158.178.178 0 0 1-.066.137 1.56 1.56 0 0 1-.496.272 1.691 1.691 0 0 1-1.417-.098 1.494 1.494 0 0 1-.582-.592 1.71 1.71 0 0 1-.207-.845 1.797 1.797 0 0 1 .196-.85 1.43 1.43 0 0 1 .544-.584 1.52 1.52 0 0 1 .796-.21 1.45 1.45 0 0 1 .777.205Zm-1.513.48a1.205 1.205 0 0 0-.36.73h2.156a1.161 1.161 0 0 0-.33-.73.987.987 0 0 0-.724-.273c-.274-.01-.54.088-.742.273Zm5.825 2.382a1.562 1.562 0 0 1-.572-.588 1.695 1.695 0 0 1-.21-.834 1.801 1.801 0 0 1 .199-.846 1.499 1.499 0 0 1 1.362-.798 1.476 1.476 0 0 1 1.196.567c.03.034.047.077.047.122a.215.215 0 0 1-.213.2.234.234 0 0 1-.172-.088 1.217 1.217 0 0 0-.386-.291 1.113 1.113 0 0 0-.472-.096 1.09 1.09 0 0 0-.577.155c-.17.106-.305.259-.39.44a1.421 1.421 0 0 0-.139.634c-.003.218.047.434.147.627.093.183.236.335.412.44.184.107.394.162.607.157a1.09 1.09 0 0 0 .758-.253.24.24 0 0 1 .16-.063.19.19 0 0 1 .128.047.206.206 0 0 1 .082.158.172.172 0 0 1-.057.13 1.518 1.518 0 0 1-1.07.393 1.611 1.611 0 0 1-.84-.213Zm3.662.003a1.55 1.55 0 0 1-.586-.586 1.792 1.792 0 0 1 0-1.682c.138-.246.34-.45.586-.588a1.67 1.67 0 0 1 .839-.213c.293-.005.581.069.836.212.245.141.447.344.586.59a1.78 1.78 0 0 1 0 1.681 1.55 1.55 0 0 1-.586.586 1.78 1.78 0 0 1-1.678 0h.003Zm1.452-.36c.178-.104.324-.256.422-.438.105-.193.157-.409.153-.627a1.28 1.28 0 0 0-.153-.633 1.11 1.11 0 0 0-.422-.439 1.261 1.261 0 0 0-1.223 0c-.18.104-.329.256-.428.44a1.28 1.28 0 0 0-.155.632c-.004.219.05.435.155.627.1.182.248.334.428.439a1.261 1.261 0 0 0 1.223 0Zm3.996-2.65a.204.204 0 0 1 .145.183.214.214 0 0 1 0 .052.177.177 0 0 1-.074.111.271.271 0 0 1-.139.03h-.182a1.015 1.015 0 0 0-.142 0 1.09 1.09 0 0 0-.72.235.763.763 0 0 0-.272.613v1.758a.22.22 0 0 1-.06.167.222.222 0 0 1-.163.06.234.234 0 0 1-.166-.06.23.23 0 0 1-.058-.166v-2.79a.205.205 0 0 1 .224-.223.21.21 0 0 1 .163.06.207.207 0 0 1 .06.164v.259c.111-.162.261-.293.436-.382a1.24 1.24 0 0 1 .57-.136.963.963 0 0 1 .378.065Zm3.087.145c.223.134.404.33.52.562.128.253.192.534.186.817a.195.195 0 0 1-.128.194.214.214 0 0 1-.082.014H63.81a1.156 1.156 0 0 0 1.201 1.09c.145 0 .289-.025.425-.074a.99.99 0 0 0 .346-.185.256.256 0 0 1 .158-.057c.048 0 .094.016.131.046a.218.218 0 0 1 .076.158.178.178 0 0 1-.065.137 1.59 1.59 0 0 1-.496.272c-.184.07-.378.107-.575.11a1.684 1.684 0 0 1-.842-.208 1.494 1.494 0 0 1-.58-.583 1.714 1.714 0 0 1-.21-.846 1.798 1.798 0 0 1 .199-.85c.123-.242.312-.444.545-.583a1.52 1.52 0 0 1 .795-.21c.272-.009.54.06.774.196Zm-1.512.48a1.189 1.189 0 0 0-.357.73h2.153a1.161 1.161 0 0 0-.33-.73.988.988 0 0 0-.725-.273c-.273-.01-.54.088-.74.273Zm5.638 2.472a1.362 1.362 0 0 1-.545-.346.215.215 0 0 1-.06-.136.219.219 0 0 1 .095-.177.237.237 0 0 1 .147-.052.216.216 0 0 1 .17.082c.101.114.23.2.373.253.165.06.34.09.514.087a1.09 1.09 0 0 0 .619-.141.453.453 0 0 0 .213-.371.41.41 0 0 0-.207-.352 1.6 1.6 0 0 0-.654-.212 1.825 1.825 0 0 1-.861-.328.703.703 0 0 1-.287-.561.768.768 0 0 1 .333-.665c.246-.165.538-.248.834-.237a1.6 1.6 0 0 1 .675.133c.185.08.345.207.466.368.028.04.044.088.047.136a.178.178 0 0 1-.093.159.193.193 0 0 1-.112.03.273.273 0 0 1-.207-.09 1 1 0 0 0-.77-.33.904.904 0 0 0-.519.133.39.39 0 0 0-.196.333.395.395 0 0 0 .17.338c.2.11.42.18.648.204.325.033.635.152.899.344a.762.762 0 0 1 .272.591.771.771 0 0 1-.163.483c-.115.153-.27.27-.447.34a1.7 1.7 0 0 1-.654.118 2.022 2.022 0 0 1-.7-.134Zm5.155-2.952c.223.134.403.329.52.561.128.254.192.535.186.818a.195.195 0 0 1-.128.194.206.206 0 0 1-.082.013H73.09a1.156 1.156 0 0 0 1.202 1.09c.145 0 .288-.025.425-.073a.999.999 0 0 0 .346-.185.256.256 0 0 1 .158-.057c.047 0 .093.016.13.046a.219.219 0 0 1 .077.158.177.177 0 0 1-.066.136 1.587 1.587 0 0 1-.495.267 1.693 1.693 0 0 1-1.417-.098 1.494 1.494 0 0 1-.58-.583 1.71 1.71 0 0 1-.208-.845 1.797 1.797 0 0 1 .197-.85c.122-.243.311-.445.544-.584a1.52 1.52 0 0 1 .796-.21c.272-.007.54.063.774.202Zm-1.512.48a1.19 1.19 0 0 0-.357.73h2.152a1.162 1.162 0 0 0-.33-.73.992.992 0 0 0-.724-.273c-.273-.01-.54.088-.741.273Zm5.125-.625a.2.2 0 0 1 .142.183.167.167 0 0 1-.074.163.248.248 0 0 1-.136.03h-.183a.986.986 0 0 0-.141 0 1.09 1.09 0 0 0-.723.235.77.77 0 0 0-.272.613v1.758a.226.226 0 1 1-.45 0v-2.788a.223.223 0 0 1 .06-.164.216.216 0 0 1 .167-.06.216.216 0 0 1 .163.06.223.223 0 0 1 .06.164v.259c.11-.162.26-.293.433-.382.177-.09.373-.137.572-.136a.98.98 0 0 1 .382.065Zm3.934.178a.255.255 0 0 1-.017.082l-1.289 2.777a.246.246 0 0 1-.226.156.226.226 0 0 1-.21-.156l-1.308-2.772a.204.204 0 0 1 .112-.27.185.185 0 0 1 .096-.024.21.21 0 0 1 .109.03c.033.02.059.05.073.087l1.128 2.453 1.12-2.453a.188.188 0 0 1 .076-.09.218.218 0 0 1 .117-.033c.034 0 .067.008.096.025a.194.194 0 0 1 .122.188Zm.94-.913a.31.31 0 0 1-.093-.23.297.297 0 0 1 .096-.228.318.318 0 0 1 .228-.09.31.31 0 0 1 .224.09.3.3 0 0 1 .095.229.327.327 0 0 1-.447.3.302.302 0 0 1-.103-.071Zm.068 3.862a.223.223 0 0 1-.065-.166v-2.761a.226.226 0 0 1 .14-.213.221.221 0 0 1 .088-.016.218.218 0 0 1 .164.065.23.23 0 0 1 .06.164v2.761a.232.232 0 0 1-.06.166.218.218 0 0 1-.164.066.222.222 0 0 1-.163-.066Zm2.338-.12a1.562 1.562 0 0 1-.572-.588 1.694 1.694 0 0 1-.21-.834 1.767 1.767 0 0 1 .2-.846 1.495 1.495 0 0 1 1.348-.798 1.464 1.464 0 0 1 1.193.567c.032.033.05.077.05.122a.215.215 0 0 1-.213.2.23.23 0 0 1-.172-.088 1.22 1.22 0 0 0-.387-.292 1.115 1.115 0 0 0-.471-.095 1.09 1.09 0 0 0-.578.155c-.17.106-.305.259-.39.44a1.42 1.42 0 0 0-.138.634c-.004.218.047.434.147.627.093.183.236.335.411.44.184.107.394.162.608.157a1.09 1.09 0 0 0 .757-.253.24.24 0 0 1 .158-.063.194.194 0 0 1 .131.047.207.207 0 0 1 .082.158.172.172 0 0 1-.057.13 1.517 1.517 0 0 1-1.071.393 1.605 1.605 0 0 1-.826-.213Zm5.177-2.862c.222.135.403.33.52.562.127.253.191.534.185.818a.197.197 0 0 1-.057.15.216.216 0 0 1-.155.057H89.16a1.156 1.156 0 0 0 1.201 1.09c.145 0 .289-.026.425-.073a.973.973 0 0 0 .344-.186.272.272 0 0 1 .16-.057.207.207 0 0 1 .205.204.183.183 0 0 1-.063.137 1.586 1.586 0 0 1-.49.267 1.66 1.66 0 0 1-.575.109 1.674 1.674 0 0 1-.842-.207 1.494 1.494 0 0 1-.58-.584 1.714 1.714 0 0 1-.21-.845 1.765 1.765 0 0 1 .199-.85c.122-.242.311-.445.545-.584a1.52 1.52 0 0 1 .795-.21c.27-.005.536.065.769.202Zm-1.513.48a1.205 1.205 0 0 0-.36.73h2.156a1.162 1.162 0 0 0-.33-.73.988.988 0 0 0-.725-.273c-.273-.01-.54.088-.74.273Zm3.649 2.473a1.387 1.387 0 0 1-.545-.347.205.205 0 0 1 .035-.313.248.248 0 0 1 .147-.052.218.218 0 0 1 .172.082c.102.114.23.2.373.253.165.06.34.09.515.087.216.016.431-.034.619-.141a.452.452 0 0 0 .212-.371.418.418 0 0 0-.207-.352c-.2-.117-.423-.19-.654-.212a1.824 1.824 0 0 1-.86-.327.703.703 0 0 1-.287-.562.77.77 0 0 1 .332-.665c.246-.165.538-.248.834-.237.232-.005.463.04.676.133.184.08.345.207.466.368.027.04.043.088.046.137a.182.182 0 0 1-.093.158.204.204 0 0 1-.114.03.273.273 0 0 1-.204-.09 1.003 1.003 0 0 0-.79-.33.915.915 0 0 0-.518.134.392.392 0 0 0 0 .67c.2.11.42.18.648.204.325.033.636.152.9.344a.757.757 0 0 1 .272.592.77.77 0 0 1-.16.482c-.12.154-.28.271-.461.34-.209.082-.43.122-.654.118a2.025 2.025 0 0 1-.7-.133Z"/>
    <path fill="#95BAC3"
          d="M91.76 11.531a7.1 7.1 0 0 1-3.202.311 9.233 9.233 0 0 0 3.814.42 10.16 10.16 0 0 0 2.354-.545 7.8 7.8 0 0 0 .474-1.186 7.64 7.64 0 0 0 .31-1.71 7.17 7.17 0 0 1-3.75 2.71Z"/>
    <path fill="#CFEAF2"
          d="M82.691 7.69c.72.522 1.395 1.1 2.02 1.732a5.932 5.932 0 0 0 3.797 1.573 5.113 5.113 0 0 0 5.054-4.344A5.12 5.12 0 0 0 90.037.995 7.625 7.625 0 0 0 80.588 6.1l-.076.272a18.03 18.03 0 0 1 2.18 1.32Z"/>
    <path fill="#DFA36C"
          d="M91.086 15.258c.371-.17.727-.37 1.066-.597a7 7 0 0 1-2.665-.745c-1.907-.995-3.308-2.358-4.536-3.568a7.495 7.495 0 0 1-.507-.499 16.149 16.149 0 0 0-2.03-1.75A17.319 17.319 0 0 0 80.4 6.875a7.522 7.522 0 0 0 0 2.835 8.64 8.64 0 0 1 4.038 1.548 56.572 56.572 0 0 0 6.648 4Z"/>
    <path fill="#C8D9DE"
          d="M91.414 12.804a9.65 9.65 0 0 1-4.014-.875 13.306 13.306 0 0 0 2.325 1.546c.95.477 2.001.72 3.065.709a7.478 7.478 0 0 0 1.59-1.827c-.637.195-1.292.325-1.955.39a9.753 9.753 0 0 1-1.011.057Z"/>
    <path fill="#008996"
          d="M94.114 5.878a5.615 5.615 0 0 1-4.765 5.542 6.83 6.83 0 0 0 2.248-.354 6.595 6.595 0 0 0 3.918-3.168 7.654 7.654 0 0 0-2.278-5.027c.573.898.877 1.941.877 3.007Z"/>
    <path fill="#F6E2D0"
          d="M84.147 11.654a8.156 8.156 0 0 0-3.645-1.434 7.633 7.633 0 0 0 6.866 5.718 7.626 7.626 0 0 0 3.128-.44 56.956 56.956 0 0 1-6.349-3.844Z"/>
</svg>
