<svg xmlns="http://www.w3.org/2000/svg" width="22" height="16" fill="none" viewBox="0 0 22 16">
    <path fill="#293A45"
          d="M4.613 15.656.731 11.774l1.227-1.214 1.84 1.839V4.434c0-1.105.392-2.05 1.177-2.832C5.76.819 6.705.428 7.81.428c1.106 0 2.05.391 2.832 1.174.782.783 1.173 1.727 1.173 2.832v7.119c0 .68.228 1.256.685 1.73.456.474 1.02.71 1.693.71s1.236-.236 1.69-.71c.455-.473.682-1.05.682-1.73V3.679l-1.839 1.839-1.215-1.215L17.388.428l3.881 3.875-1.22 1.215-1.84-1.84v7.875a3.971 3.971 0 0 1-1.172 2.878c-.782.8-1.73 1.2-2.846 1.2-1.11 0-2.056-.4-2.836-1.2-.78-.8-1.17-1.76-1.17-2.878V4.434c0-.666-.23-1.229-.688-1.687-.458-.459-1.02-.688-1.687-.688s-1.23.23-1.688.688c-.458.458-.687 1.02-.687 1.687V12.4l1.839-1.84 1.22 1.215-3.881 3.882Z"/>
</svg>
