<?xml version="1.0" encoding="UTF-8"?>
<svg xmlns="http://www.w3.org/2000/svg" width="19px" height="19px"
     viewBox="0 0 19 19" version="1.1">
    <g id="surface1">
        <path style=" stroke:none;fill-rule:nonzero;fill:rgb(0%,0%,0%);fill-opacity:1;"
              d="M 9.855469 0.875 C 9.632812 0.765625 9.367188 0.765625 9.144531 0.875 L 1.230469 4.832031 C 0.960938 4.96875 0.792969 5.242188 0.792969 5.542969 C 0.792969 5.839844 0.960938 6.117188 1.230469 6.25 L 9.144531 10.207031 C 9.367188 10.320312 9.632812 10.320312 9.855469 10.207031 L 17.769531 6.25 C 18.039062 6.117188 18.207031 5.839844 18.207031 5.542969 C 18.207031 5.242188 18.039062 4.96875 17.769531 4.832031 Z M 9.855469 0.875 "/>
        <path style=" stroke:none;fill-rule:nonzero;fill:rgb(0%,0%,0%);fill-opacity:1;"
              d="M 0.875 13.105469 C 1.070312 12.714844 1.546875 12.554688 1.9375 12.75 L 9.5 16.53125 L 17.0625 12.75 C 17.453125 12.554688 17.929688 12.714844 18.125 13.105469 C 18.320312 13.496094 18.160156 13.972656 17.769531 14.167969 L 9.855469 18.125 C 9.632812 18.234375 9.367188 18.234375 9.144531 18.125 L 1.230469 14.167969 C 0.839844 13.972656 0.679688 13.496094 0.875 13.105469 Z M 0.875 13.105469 "/>
        <path style=" stroke:none;fill-rule:nonzero;fill:rgb(0%,0%,0%);fill-opacity:1;"
              d="M 1.9375 8.792969 C 1.546875 8.597656 1.070312 8.753906 0.875 9.144531 C 0.679688 9.535156 0.839844 10.011719 1.230469 10.207031 L 9.144531 14.167969 C 9.367188 14.277344 9.632812 14.277344 9.855469 14.167969 L 17.769531 10.207031 C 18.160156 10.011719 18.320312 9.535156 18.125 9.144531 C 17.929688 8.753906 17.453125 8.597656 17.0625 8.792969 L 9.5 12.574219 Z M 1.9375 8.792969 "/>
    </g>
</svg>
