<?xml version="1.0" encoding="UTF-8" standalone="no"?>
<svg
        xmlns:dc="http://purl.org/dc/elements/1.1/"
        xmlns:cc="http://creativecommons.org/ns#"
        xmlns:rdf="http://www.w3.org/1999/02/22-rdf-syntax-ns#"
        xmlns:sodipodi="http://sodipodi.sourceforge.net/DTD/sodipodi-0.dtd"
        xmlns:inkscape="http://www.inkscape.org/namespaces/inkscape"
        xmlns="http://www.w3.org/2000/svg"
        version="1.1"
        id="Capa_1"
        x="0px"
        y="0px"
        viewBox="0 0 310.75 310.75"
        style="enable-background:new 0 0 310.75 310.75;"
        xml:space="preserve"
        sodipodi:docname="icon-cbca.svg"
        inkscape:version="1.0.1 (3bc2e813f5, 2020-09-07)"><metadata
   id="metadata39"><rdf:RDF><cc:Work
       rdf:about=""><dc:format>image/svg+xml</dc:format><dc:type
        rdf:resource="http://purl.org/dc/dcmitype/StillImage"/></cc:Work></rdf:RDF></metadata>
    <defs
            id="defs37"/>
    <sodipodi:namedview
            pagecolor="#ffffff"
            bordercolor="#666666"
            borderopacity="1"
            objecttolerance="10"
            gridtolerance="10"
            guidetolerance="10"
            inkscape:pageopacity="0"
            inkscape:pageshadow="2"
            inkscape:window-width="2560"
            inkscape:window-height="1377"
            id="namedview35"
            showgrid="false"
            inkscape:zoom="2.3652454"
            inkscape:cx="155.375"
            inkscape:cy="155.375"
            inkscape:window-x="-8"
            inkscape:window-y="-8"
            inkscape:window-maximized="1"
            inkscape:current-layer="Capa_1"/>
    <path
            d="m 162.61711,249.56526 c -26.58958,0 -52.8441,-20.56166 -65.496374,-45.49122 l 75.644244,-0.84558 8.45579,-26.51528 -94.247637,0.42279 c -0.232754,-2.79467 -0.780935,-8.13068 -0.780935,-10.98982 0,-2.83228 1.39294,-7.35724 1.626513,-10.11432 l 82.833969,-1.26837 12.26088,-27.79054 -90.019885,0.42279 c 12.652265,-24.92727 38.483175,-48.020292 65.073585,-48.020292 25.41435,0 53.99599,16.77493 67.10065,42.398952 l 26.95334,-12.36362 C 232.71995,71.643478 199.8402,50.734693 160.08038,50.734693 c -29.88911,0 -52.71325,10.251104 -73.481551,33.502483 C 76.153621,95.933845 67.32723,112.11862 62.080448,126.97292 l -24.068366,0.84558 -11.415306,26.09862 29.719452,-0.42279 c -0.177843,2.77549 -1.538002,8.5696 -1.538002,11.38269 0,2.84225 0.0918,9.02307 0.269634,11.8354 H 37.166504 L 26.596776,203.22769 H 66.30834 c 5.246782,14.85277 12.804805,30.17662 23.250833,41.86255 20.768307,23.25291 41.055697,34.79616 70.944817,34.79616 39.76063,0 73.06154,-20.48293 92.36284,-58.24944 l -27.79892,-13.6596 c -13.10548,25.65701 -37.03644,41.5879 -62.4508,41.5879 z"
            id="path2"
            style="stroke-width:0.793021"
            sodipodi:nodetypes="sccccsccccsccscccccscccccsccs"/>
    <g
            id="g4">
</g>
    <g
            id="g6">
</g>
    <g
            id="g8">
</g>
    <g
            id="g10">
</g>
    <g
            id="g12">
</g>
    <g
            id="g14">
</g>
    <g
            id="g16">
</g>
    <g
            id="g18">
</g>
    <g
            id="g20">
</g>
    <g
            id="g22">
</g>
    <g
            id="g24">
</g>
    <g
            id="g26">
</g>
    <g
            id="g28">
</g>
    <g
            id="g30">
</g>
    <g
            id="g32">
</g>
</svg>
