<svg xmlns="http://www.w3.org/2000/svg" width="16" height="17" fill="none" viewBox="0 0 16 17">
    <path fill="#293A45"
          d="m14.911 16.038-5.788-5.783a4.823 4.823 0 0 1-1.523.863 5.528 5.528 0 0 1-1.864.31c-1.603 0-2.96-.556-4.07-1.668C.556 8.648 0 7.306 0 5.735c0-1.57.556-2.912 1.668-4.024C2.78.599 4.125.043 5.703.043c1.579 0 2.92.556 4.025 1.668 1.104 1.112 1.656 2.454 1.656 4.028 0 .632-.099 1.237-.298 1.816a5.556 5.556 0 0 1-.896 1.628L16 14.95l-1.089 1.089ZM5.716 9.936c1.163 0 2.15-.41 2.961-1.23.81-.822 1.216-1.811 1.216-2.97 0-1.16-.405-2.15-1.217-2.97-.81-.821-1.798-1.232-2.96-1.232-1.175 0-2.172.41-2.993 1.231-.821.821-1.232 1.811-1.232 2.97 0 1.16.41 2.15 1.23 2.97.821.82 1.82 1.231 2.995 1.231Z"/>
</svg>
